<svg xmlns="http://www.w3.org/2000/svg" data-name="Layer 1" viewBox="0 0 100 125" x="0px" y="0px"><title>05</title><g data-name="Group"><path data-name="Path" d="M46.7,38.3l5.7,5.7,1.2-1.2a10,10,0,0,0,0-14.1L38.5,13.4a10,10,0,0,0-14.1,0l-11,11a10,10,0,0,0,0,14.1L28.5,53.6a10,10,0,0,0,14.1,0l1.2-1.2-5.7-5.7L37,48a2,2,0,0,1-2.8,0L19.1,32.9a2,2,0,0,1,0-2.8l11-11a2,2,0,0,1,2.8,0L48,34.2A2,2,0,0,1,48,37Z"/><path data-name="Path" d="M71.5,46.4a10,10,0,0,0-14.1,0l-1.2,1.2,5.7,5.7L63,52a2,2,0,0,1,2.8,0L80.9,67.1a2,2,0,0,1,0,2.8l-11,11a2,2,0,0,1-2.8,0L52,65.8A2,2,0,0,1,52,63l1.2-1.2-5.7-5.7-1.2,1.2a10,10,0,0,0,0,14.1L61.5,86.6a10,10,0,0,0,14.1,0l11-11a10,10,0,0,0,0-14.1Z"/><rect data-name="Path" x="61.9" y="23.7" width="20.8" height="8" transform="translate(1.6 59.2) rotate(-45)"/><rect data-name="Path" x="17.3" y="68.3" width="20.8" height="8" transform="translate(-43 40.7) rotate(-45)"/></g></svg>
