<svg xmlns="http://www.w3.org/2000/svg" data-name="Layer 1" viewBox="0 0 128 160" x="0px" y="0px"><title>miscellaneous 166_expandline</title><path d="M33.63768,30H38.959L18.50388,6.68115a2.00027,2.00027,0,0,0-3.0078,2.6377Z"/><path d="M64.46188,15.3647a1.99989,1.99989,0,0,0-2.9238-2.7294L45.33108,30h5.4716Z"/><path d="M120,34H8a8.0092,8.0092,0,0,0-8,8v68a8.0092,8.0092,0,0,0,8,8H20v2a2,2,0,0,0,4,0v-2h80v2a2,2,0,0,0,4,0v-2h12a8.00922,8.00922,0,0,0,8-8V42A8.00922,8.00922,0,0,0,120,34Zm4,76a4.00423,4.00423,0,0,1-4,4H8a4.00421,4.00421,0,0,1-4-4V42a4.00421,4.00421,0,0,1,4-4H120a4.00423,4.00423,0,0,1,4,4Z"/><path d="M92,46H20a8.0092,8.0092,0,0,0-8,8V98a8.0092,8.0092,0,0,0,8,8H92a8.00922,8.00922,0,0,0,8-8V54A8.00922,8.00922,0,0,0,92,46Zm4,52a4.00423,4.00423,0,0,1-4,4H20a4.00421,4.00421,0,0,1-4-4V54a4.00421,4.00421,0,0,1,4-4H92a4.00423,4.00423,0,0,1,4,4Z"/><path d="M112,52a6,6,0,1,0,6,6A6.00654,6.00654,0,0,0,112,52Zm0,8a2,2,0,1,1,2-2A2.00232,2.00232,0,0,1,112,60Z"/><path d="M112,68a6,6,0,1,0,6,6A6.00654,6.00654,0,0,0,112,68Zm0,8a2,2,0,1,1,2-2A2.00232,2.00232,0,0,1,112,76Z"/><path d="M114,94h-4a2,2,0,0,0,0,4h4a2,2,0,0,0,0-4Z"/><path d="M45.67088,74.0747a12.09075,12.09075,0,0,1-3.2266,3.0317A4.28854,4.28854,0,0,1,46,81.1934v7.3457c0,.2177-.27342.4609-.667.4609H26.667c-.39362,0-.667-.2432-.667-.4609V81.1934a4.28889,4.28889,0,0,1,3.55658-4.087,12.07158,12.07158,0,0,1-3.2275-3.0312A8.14419,8.14419,0,0,0,22,81.1934v7.3457A4.57264,4.57264,0,0,0,26.667,93H45.333A4.57259,4.57259,0,0,0,50,88.5391V81.1934A8.14494,8.14494,0,0,0,45.67088,74.0747Z"/><path d="M36,75a8,8,0,1,0-8-8A8.00922,8.00922,0,0,0,36,75Zm0-12a4,4,0,1,1-4,4A4.00423,4.00423,0,0,1,36,63Z"/><path d="M88,68H58a2,2,0,0,0,0,4H88a2,2,0,0,0,0-4Z"/><path d="M88,76H58a2,2,0,0,0,0,4H88a2,2,0,0,0,0-4Z"/><path d="M74,84H58a2,2,0,0,0,0,4H74a2,2,0,0,0,0-4Z"/></svg>
