<svg xmlns="http://www.w3.org/2000/svg" xmlns:xlink="http://www.w3.org/1999/xlink" version="1.1" x="0px" y="0px" viewBox="0 0 66 82.5" style="enable-background:new 0 0 66 66;" xml:space="preserve"><path d="M64.86,19.15c0-0.29-0.17-0.56-0.43-0.68L48.87,11.2c0,0-0.01,0-0.01,0c-0.09-0.04-0.19-0.07-0.3-0.07c0,0,0,0,0,0h0  c-0.11,0-0.21,0.03-0.3,0.07c0,0-0.01,0-0.01,0L33,18.32l-5.86-2.74c0.51-1.23,0.82-2.4,0.82-3.41c0-5.81-4.73-10.53-10.53-10.53  c-5.8,0-10.52,4.73-10.52,10.53c0,1.01,0.31,2.18,0.82,3.41l-6.17,2.88c-0.26,0.12-0.43,0.39-0.43,0.68v44.46  c0,0.26,0.13,0.5,0.35,0.63c0.12,0.08,0.26,0.12,0.4,0.12c0.11,0,0.22-0.02,0.32-0.07l15.24-7.12l15.24,7.12  c0.04,0.02,0.09,0.01,0.13,0.03c0.06,0.02,0.12,0.04,0.19,0.03c0.06,0,0.11-0.02,0.17-0.03c0.05-0.01,0.1-0.01,0.14-0.03l15.23-7.12  l15.24,7.12c0.1,0.05,0.21,0.07,0.32,0.07c0.14,0,0.28-0.04,0.4-0.12c0.22-0.14,0.35-0.38,0.35-0.63V19.15z M63.36,35.6L49.3,33.72  V13.06l14.06,6.57V35.6z M47.8,32.16l-10.26-14.3l10.26-4.8V32.16z M46.6,46.21c0-1.08,0.88-1.96,1.96-1.96  c1.08,0,1.96,0.88,1.96,1.96c0,1.07-0.88,1.95-1.96,1.95C47.48,48.16,46.6,47.28,46.6,46.21z M32.26,19.63v42.8l-4.16-1.94  l-1.56-9.87c-0.03-0.17-0.11-0.32-0.23-0.44l-8.11-7.41V28.32c1.08-1.18,5.87-6.53,8.32-11.37L32.26,19.63z M2.64,28.78h6.75  c0.35,0,0.65-0.24,0.73-0.58l1.46-6.14c1.87,2.57,3.79,4.79,4.74,5.84c0.03,0.66,0.14,1.31,0.35,1.95c0.01,0.02,0.02,0.04,0.03,0.06  v12.46l-5.78,0.22l-8.28-6.51V28.78z M18.2,44.8l6.9,6.3l1.36,8.62l-8.26-3.86V44.8z M17.44,3.14c4.98,0,9.03,4.05,9.03,9.03  c0,0.99-0.37,2.17-0.96,3.44c-0.01,0.01-0.02,0.02-0.02,0.03c-0.01,0.01,0,0.03-0.01,0.04c-2,4.29-6.48,9.49-8.05,11.23  c-1.07-1.19-3.49-4-5.56-7.02c-0.01-0.01-0.02-0.03-0.03-0.04c-0.95-1.39-1.82-2.82-2.44-4.17c-0.01-0.01,0-0.03-0.01-0.04  c-0.01-0.01-0.02-0.02-0.02-0.03c-0.58-1.27-0.96-2.45-0.96-3.44C8.42,7.19,12.46,3.14,17.44,3.14z M8.37,16.95  c0.58,1.15,1.29,2.32,2.05,3.47l-1.63,6.86H2.64v-7.65L8.37,16.95z M2.64,38l7.57,5.95c0.14,0.11,0.31,0.17,0.49,0.16l6-0.23v11.98  L2.64,62.43V38z M33.76,35.04c0.53,0.6,0.94,1.32,1.18,2.09c0.1,0.32,0.4,0.53,0.72,0.53c0.07,0,0.15-0.01,0.22-0.03  c0.4-0.12,0.62-0.54,0.5-0.94c-0.41-1.32-1.21-2.53-2.27-3.41c-0.1-0.08-0.22-0.13-0.34-0.15V19.63l2.4-1.12L47.8,34.72  c0,0,0.01,0,0.01,0.01v5.05c-3.38,0.38-6.02,3.25-6.02,6.73c0,2.81,3.55,7.24,5.31,9.26c-0.16,0.02-0.31,0.05-0.48,0.05  c-0.41,0.01-0.75,0.35-0.74,0.76c0,0.06,0.02,0.11,0.03,0.16l-12.16,5.68V35.04z M49.76,56.07c1.64-1.85,5.58-6.6,5.58-9.56  c0-3.48-2.64-6.36-6.03-6.73v-4.55l14.06,1.88v25.32L49.76,56.07z"/><path d="M13.61,16.61h8.22c0.56,0,1.01-0.45,1.01-1.01V7.74c0-0.56-0.45-1.01-1.01-1.01h-1.6v2.25L19.4,8.46l-0.84,0.52l-0.84-0.52  l-0.84,0.52l-0.84-0.52l-0.84,0.52V6.73h-1.6c-0.56,0-1.01,0.45-1.01,1.01v7.87C12.61,16.16,13.06,16.61,13.61,16.61z"/><path d="M43.36,55c-1.06-0.53-2.04-1.25-2.95-1.96l-0.48,0.58l-0.43,0.61c0.97,0.75,2.02,1.52,3.2,2.11  c0.11,0.05,0.22,0.08,0.33,0.08c0.27,0,0.54-0.15,0.67-0.41C43.88,55.63,43.73,55.18,43.36,55z"/><path d="M36,47.73c-0.12-0.4-0.54-0.61-0.94-0.5c-0.4,0.12-0.62,0.54-0.5,0.94c0.36,1.19,1.03,2.32,2.04,3.46  c0.15,0.17,0.35,0.25,0.56,0.25c0.18,0,0.36-0.06,0.5-0.19c0.31-0.28,0.34-0.75,0.06-1.06C36.86,49.65,36.29,48.71,36,47.73z"/><path d="M19.08,33.19c1.1,0.82,2.48,1.31,3.87,1.38c0.01,0,0.02,0,0.04,0c0.4,0,0.73-0.31,0.75-0.71c0.02-0.41-0.3-0.76-0.71-0.78  c-1.1-0.05-2.18-0.44-3.04-1.08c-0.33-0.25-0.8-0.18-1.05,0.15C18.67,32.47,18.74,32.94,19.08,33.19z"/><path d="M35.13,45.01c0.37,0,0.69-0.27,0.74-0.64c0.09-0.6,0.21-1.2,0.33-1.79c0.13-0.62,0.25-1.25,0.34-1.87  c0.06-0.41-0.22-0.79-0.63-0.85c-0.41-0.06-0.79,0.22-0.85,0.63c-0.09,0.6-0.21,1.19-0.33,1.79c-0.13,0.63-0.25,1.25-0.34,1.87  c-0.06,0.41,0.22,0.79,0.63,0.85C35.05,45.01,35.09,45.01,35.13,45.01z"/><path d="M26.59,33.8c0.08,0,0.17-0.01,0.25-0.04c0.58-0.21,1.15-0.4,1.74-0.51c0.51-0.09,1.04-0.11,1.57-0.05  c0.41,0.04,0.78-0.25,0.83-0.67c0.04-0.41-0.25-0.78-0.67-0.83c-0.67-0.07-1.35-0.05-1.99,0.07c-0.7,0.12-1.36,0.35-1.98,0.57  c-0.39,0.14-0.59,0.57-0.45,0.96C26,33.6,26.28,33.8,26.59,33.8z"/></svg>
