<svg xmlns="http://www.w3.org/2000/svg" xmlns:xlink="http://www.w3.org/1999/xlink" version="1.1" x="0px" y="0px" viewBox="0 0 96 120" enable-background="new 0 0 96 96" xml:space="preserve"><g><g><g><path d="M11.83,46.64c6.065-8.375,20.576-6.583,29.617-6.544c12.463,0.054,25.461-0.822,37.726,2.03     c3.546,0.824,7.786,4.258,2.815,6.693c-2.017,0.987-4.322,1.503-6.496,2.019c-6.271,1.486-12.717,2.24-19.143,2.609     c-7.78,0.448-15.913,0.521-23.637-0.56c-3.535-0.494-6.762-2.125-10.205-2.958c-2.623-0.635-10.08-0.039-10.614-3.771     c-0.114-0.795-1.318-0.456-1.205,0.332c0.296,2.066,2.618,2.774,4.347,3.508c3.67,1.559,8.113,1.321,11.963,2.667     c9.169,3.204,19.798,2.426,29.352,2.031c3.756-0.154,31.666-1.336,29.774-9.443c-1.063-4.555-9.922-5.042-13.364-5.376     c-9.477-0.919-18.894-1.475-28.412-1.067C34,39.254,17.845,36.215,10.752,46.009C10.277,46.664,11.363,47.286,11.83,46.64     L11.83,46.64z"/></g></g><g><g><path d="M10.85,45.883c-6.538,6.726-3.997,20.457,3.412,25.584c5.103,3.531,11.463,5.344,17.224,7.524     c7.747,2.932,16.659,1.428,24.698,0.768c12.202-1.003,23.837-2.963,29.926-14.729c2.021-3.907,5.281-16.868,0.015-19.484     c-0.72-0.357-1.353,0.721-0.631,1.079c5.286,2.626,0.323,16.572-1.832,20.265c-5.637,9.657-17.487,10.711-27.478,11.619     c-5.684,0.517-11.441,0.886-17.149,0.859c-5.523-0.025-10.814-3.145-15.874-4.985c-5.777-2.103-10.965-4.717-13.447-10.715     c-2.054-4.959-1.807-12.965,2.02-16.902C12.295,46.188,11.412,45.304,10.85,45.883L10.85,45.883z"/></g></g><g><g><path d="M35.768,53.486c-5.313,6.318-5.138,22.95,3.032,27.056c0.718,0.36,1.352-0.718,0.631-1.08     c-7.312-3.674-7.588-19.373-2.78-25.091C37.166,53.757,36.287,52.869,35.768,53.486L35.768,53.486z"/></g></g><g><g><path d="M26.254,51.555c-6.72,5.516-7.366,13.801-7.866,21.918c-0.05,0.806,1.2,0.801,1.25,0     c0.48-7.805,1.016-15.712,7.499-21.033C27.761,51.927,26.871,51.048,26.254,51.555L26.254,51.555z"/></g></g><g><g><path d="M61.76,53.736c1.642,5.468,0.999,10.635-1.736,15.619c-1.936,3.528-5.271,6.223-7.475,9.614     c-0.441,0.678,0.642,1.304,1.078,0.631c2.517-3.873,6.645-7.021,8.423-11.375c2.028-4.966,2.462-9.67,0.915-14.821     C62.734,52.633,61.527,52.962,61.76,53.736L61.76,53.736z"/></g></g><g><g><path d="M75.988,51.261c0.077,5.802-0.32,10.112-3.223,15.305c-2.334,4.175-5.281,8.173-8.895,11.321     c-0.609,0.531,0.278,1.411,0.883,0.885c4.099-3.571,7.19-8.175,9.826-12.889c2.7-4.831,2.73-9.216,2.658-14.622     C77.228,50.456,75.978,50.455,75.988,51.261L75.988,51.261z"/></g></g><g><g><path d="M7.583,58.433c1.346,3.681,5.888,5.098,9.269,6.201c6.12,1.997,12.676,2.858,19.063,3.482     c7.366,0.721,14.903,0.249,22.217-0.775c5.088-0.712,10.089-1.711,15.037-3.104c4.983-1.402,9.51-3.758,14.358-5.488     c0.754-0.269,0.429-1.477-0.332-1.205c-7.602,2.712-14.646,5.854-22.625,7.486c-8.036,1.643-16.579,2.462-24.79,2.12     c-5.455-0.228-10.915-1.038-16.261-2.112c-4.252-0.854-12.991-2.183-14.73-6.938C8.514,57.35,7.306,57.674,7.583,58.433     L7.583,58.433z"/></g></g><g><g><path d="M12.154,45.967c0.383-3.308,0.716-6.595,1.722-9.782c1.492-4.729,5.696-7.188,9.724-9.52     c8.47-4.903,17.702-9.002,27.529-9.958c8.138-0.792,16.156,2.525,22.775,6.99c3.627,2.446,6.714,5.649,9.044,9.34     c1.74,2.756,4.563,9.224,2.321,12.256c-0.48,0.649,0.605,1.271,1.078,0.631c3.963-5.355-2.847-14.967-6.421-18.777     C73.729,20.54,64.434,16.264,55.48,15.422c-11.305-1.062-22.979,4.791-32.512,10.164c-3.765,2.122-7.114,4.253-9.336,8.046     c-2.111,3.607-2.26,8.287-2.729,12.334C10.812,46.767,12.063,46.758,12.154,45.967L12.154,45.967z"/></g></g></g></svg>
